<svg xmlns="http://www.w3.org/2000/svg" viewBox="0 0 256 256">
  <defs>
    <linearGradient id="blue" x1="42" y1="220" x2="215" y2="38" gradientUnits="userSpaceOnUse">
      <stop offset="0" stop-color="#0967d8"/>
      <stop offset=".48" stop-color="#20c7f2"/>
      <stop offset="1" stop-color="#35d9ff"/>
    </linearGradient>
    <linearGradient id="green" x1="104" y1="68" x2="205" y2="146" gradientUnits="userSpaceOnUse">
      <stop offset="0" stop-color="#8cff5c"/>
      <stop offset="1" stop-color="#15c9ef"/>
    </linearGradient>
  </defs>
  <circle cx="128" cy="128" r="116" fill="#000"/>
  <path fill="url(#blue)" d="M212 54C167 34 107 42 64 82c-47 45-51 119-12 164 42 48 116 54 163 12 30-27 44-67 37-102-12 48-60 79-107 70-49-9-81-54-62-94 13-28 43-47 78-33-22-28-60-27-89 5 11-35 49-58 94-60 16 0 31 3 46 10Z"/>
  <path fill="#22c7f2" opacity=".86" d="M69 151c19-39 62-62 97-52-33-4-63 15-76 44-14 33 7 70 53 83-33-2-61-17-74-75Z"/>
  <rect x="119" y="76" width="15" height="15" rx="3" fill="url(#green)"/>
  <rect x="145" y="68" width="20" height="20" rx="3" fill="url(#green)"/>
  <rect x="94" y="91" width="17" height="17" rx="3" fill="url(#green)"/>
  <rect x="120" y="91" width="28" height="28" rx="4" fill="url(#green)"/>
  <rect x="153" y="88" width="33" height="33" rx="4" fill="url(#green)"/>
  <rect x="193" y="93" width="23" height="23" rx="4" fill="url(#green)"/>
  <rect x="151" y="129" width="22" height="22" rx="4" fill="url(#green)"/>
  <rect x="191" y="137" width="15" height="15" rx="3" fill="#15c9ef"/>
</svg>
