<?xml version="1.0" ?>
<!-- Uploaded to: SVG Repo, www.svgrepo.com, Generator: SVG Repo Mixer Tools -->
<svg fill="#000000" width="800px" height="800px" viewBox="0 0 100 100" version="1.1" xml:space="preserve" xmlns="http://www.w3.org/2000/svg" xmlns:xlink="http://www.w3.org/1999/xlink">
<g id="network"/>
<g id="connection"/>
<g id="page"/>
<g id="support"/>
<g id="configuration"/>
<g id="cloud_storage"/>
<g id="password"/>
<g id="search_engine"/>
<g id="history"/>
<g id="SEO">
<g>
<path d="M82,4H18c-2.8,0-5,2.2-5,5v67c0,2.8,2.2,5,5,5h25v12c0,1.7,1.3,3,3,3h8c1.7,0,3-1.3,3-3V81h25c2.8,0,5-2.2,5-5V9    C87,6.2,84.8,4,82,4z M55,93c0,0.6-0.4,1-1,1h-8c-0.6,0-1-0.4-1-1V74c0-0.6,0.4-1,1-1h8c0.6,0,1,0.4,1,1V93z M72.2,31.4L71,29.2    l8.5,0.9l-3.5,8l-1-1.8c-0.1-0.2-0.4-0.4-0.6-0.5c-0.3-0.1-0.5,0-0.8,0.1l-7.5,4.7c0,0,0,0,0,0L49,51.5l-5.4-8.3    c-0.1-0.2-0.4-0.4-0.6-0.4c-0.3-0.1-0.5,0-0.8,0.2l-7.8,5.4C34.1,47.2,34,46.1,34,45c0-0.3,0-0.6,0-0.9l10.4-7l5.4,8.3    c0.3,0.5,0.9,0.6,1.4,0.3L65,37c0,0,0,0,0,0c0,0,0,0,0,0l6.8-4.3C72.3,32.4,72.5,31.8,72.2,31.4z M66,45c0,8.8-7.2,16-16,16    c-6.8,0-12.8-4.2-15.1-10.6l7.5-5.2l5.4,8.3c0.2,0.3,0.5,0.5,0.8,0.5c0.2,0,0.4,0,0.5-0.2l16.7-10.6C66,43.8,66,44.4,66,45z     M34.4,41.3C36.1,34.2,42.5,29,50,29c5.3,0,10.1,2.5,13.1,6.9L51,43.4l-5.4-8.3c-0.1-0.2-0.4-0.4-0.6-0.4c-0.3-0.1-0.5,0-0.8,0.1    L34.4,41.3z M64.8,34.7C61.5,29.8,56,27,50,27c-9.3,0-17.1,7.2-17.9,16.4C32,43.8,32,44.4,32,45c0,1.8,0.3,3.6,0.8,5.3    C35.1,57.8,42,63,50,63c9.9,0,18-8.1,18-18c0-1-0.1-1.9-0.3-2.9l2.7-1.7c0.3,1.5,0.5,3.1,0.5,4.7c0,11.6-9.4,21-21,21    c-8.6,0-16.5-5.4-19.6-13.5c-0.7-1.9-1.2-3.8-1.3-5.8C29,46.1,29,45.5,29,45c0-11.6,9.4-21,21-21c7,0,13.4,3.4,17.4,9.2L64.8,34.7    z M53,67.8V71h-6v-3.2c1,0.1,2,0.2,3,0.2C51,68,52,67.9,53,67.8z M85,76c0,1.7-1.3,3-3,3H57v-5c0-1.3-0.8-2.4-2-2.8v-3.7    C65.3,65.2,73,56,73,45c0-2-0.3-3.9-0.8-5.8l1.5-1l1.4,2.6c0.2,0.3,0.5,0.5,0.9,0.5c0.4,0,0.7-0.2,0.9-0.6l4.9-11.1    c0.1-0.3,0.1-0.6-0.1-0.9s-0.4-0.5-0.8-0.5L69.3,27c-0.4,0-0.7,0.1-0.9,0.4c-0.2,0.3-0.2,0.7,0,1l1.7,3l-0.9,0.6    C64.8,25.7,57.7,22,50,22c-12.7,0-23,10.3-23,23c0,0.4,0,0.9,0,1.3l-8.6,5.8c-0.4,0.3-0.6,0.9-0.3,1.3l3,5.1    c0.1,0.2,0.4,0.4,0.6,0.5c0.1,0,0.1,0,0.2,0c0.2,0,0.4-0.1,0.6-0.2l6.5-4.4c3,6.6,9,11.5,16,13v3.8c-1.2,0.4-2,1.5-2,2.8v5H18    c-1.7,0-3-1.3-3-3V18h70V76z M28.3,52.5l-6,4.1l-2-3.4l6.9-4.7C27.5,49.9,27.8,51.2,28.3,52.5z M85,16H15V9c0-1.7,1.3-3,3-3h64    c1.7,0,3,1.3,3,3V16z"/>
<circle cx="79" cy="11" r="2"/>
<circle cx="73" cy="11" r="2"/>
<circle cx="67" cy="11" r="2"/>
</g>
</g>
<g id="optimization"/>
<g id="backlink"/>
<g id="performance"/>
<g id="analytics"/>
<g id="security"/>
<g id="dark_web"/>
<g id="video_player"/>
<g id="upload_download"/>
<g id="incognito_tab"/>
<g id="bookmark"/>
</svg>